<?xml version="1.0" standalone="no"?>
<!DOCTYPE svg PUBLIC "-//W3C//DTD SVG 20010904//EN"
 "http://www.w3.org/TR/2001/REC-SVG-20010904/DTD/svg10.dtd">
<svg version="1.0" xmlns="http://www.w3.org/2000/svg"
 width="904.000000pt" height="904.000000pt" viewBox="0 0 904.000000 904.000000"
 preserveAspectRatio="xMidYMid meet">
<metadata>
Created by potrace 1.11, written by Peter Selinger 2001-2013
</metadata>
<g transform="translate(0.000000,904.000000) scale(0.100000,-0.100000)"
fill="#000000" stroke="none">
<path d="M1537 8008 c-8 -13 -73 -126 -144 -253 -72 -126 -187 -329 -255 -450
-69 -121 -279 -492 -468 -825 -188 -333 -344 -608 -346 -612 -3 -3 73 -94 168
-201 161 -181 552 -625 2317 -2627 840 -953 962 -1090 969 -1090 3 0 -3 10
-14 21 l-19 22 775 -8 776 -7 110 123 c213 240 2321 2630 3017 3422 l297 339
-32 56 c-17 32 -61 107 -96 167 -142 243 -757 1325 -793 1395 -21 41 -98 181
-172 310 l-133 235 -2972 3 -2972 2 -13 -22z m3140 -680 c42 -23 73 -76 73
-124 0 -22 -18 -118 -39 -214 -22 -96 -67 -296 -100 -444 -34 -148 -61 -275
-61 -282 0 -12 33 -14 192 -12 l193 3 47 210 c26 116 70 311 98 435 88 389 79
361 121 402 33 32 46 37 102 43 35 4 142 5 238 4 152 -4 178 -7 208 -24 42
-25 71 -77 71 -127 0 -21 -45 -239 -100 -485 -55 -247 -100 -451 -100 -455 0
-5 127 -8 283 -9 191 0 293 -4 316 -12 19 -7 48 -29 65 -50 l31 -39 0 -246 c0
-229 -1 -249 -20 -280 -11 -19 -37 -42 -57 -53 -35 -18 -63 -19 -407 -19 -343
0 -370 -1 -375 -17 -3 -10 -30 -133 -61 -273 -31 -140 -59 -265 -62 -277 l-5
-23 293 0 c268 0 298 -2 336 -20 24 -11 51 -33 63 -52 19 -31 20 -46 18 -290
l-3 -256 -25 -28 c-49 -53 -59 -54 -465 -54 -206 0 -375 -3 -375 -6 0 -6 -58
-268 -180 -814 -63 -282 -55 -275 -370 -275 -251 0 -272 5 -310 68 -27 43 -25
100 4 233 118 523 176 786 176 790 0 2 -87 4 -194 4 -177 0 -195 -2 -200 -17
-2 -10 -50 -227 -106 -483 -60 -276 -110 -483 -123 -510 -40 -81 -56 -85 -323
-85 l-231 0 -37 29 c-48 36 -70 86 -62 140 4 23 27 129 51 236 24 107 67 296
95 420 28 124 54 235 57 247 l5 22 -305 3 c-291 3 -307 4 -333 24 -68 50 -69
53 -72 301 -4 259 3 293 66 341 l35 27 382 3 382 3 12 57 c27 122 112 498 117
514 5 16 -19 17 -313 20 -300 3 -320 4 -345 23 -60 45 -63 60 -66 305 -3 257
2 286 62 335 l38 30 393 3 392 3 16 77 c9 42 25 118 36 167 11 50 52 239 91
420 42 191 80 343 90 360 42 67 75 74 335 72 177 -2 215 -5 242 -19z"/>
<path d="M4385 5528 c-10 -43 -113 -503 -120 -535 l-7 -33 196 0 c177 0 195 2
200 18 3 9 30 134 61 277 31 143 59 268 61 278 5 16 -9 17 -190 17 -195 0
-196 0 -201 -22z"/>
<path d="M5239 1923 l-24 -28 28 24 c25 23 32 31 24 31 -2 0 -14 -12 -28 -27z"/>
</g>
</svg>
